<svg xmlns="http://www.w3.org/2000/svg" version="1.1" xmlns:xlink="http://www.w3.org/1999/xlink"  width="750" height="715" viewBox="0 0 354.1893310546875 312" class="svg-animations"><svg viewBox="0 0 78.28880310058594 135" width="75" height="75" x="29.515777587890625" y="118.5" style="fill: rgb(240, 80, 0);"><svg width="80" height="130" viewBox="0 0 80 130" xmlns="http://www.w3.org/2000/svg">
<path d="M73.5176 17.7686C66.3731 6.64396 53.856 0 40.068 0C26.2801 0 13.7625 6.64504 6.6185 17.7686C0.00400323 28.0453 -0.888995 40.2903 4.15117 51.356L15.7447 76.7682L15.7901 92.2976C15.7901 93.1295 16.4711 93.8116 17.3041 93.8116C18.136 93.8116 18.8181 93.1306 18.8181 92.2976L18.7727 76.102L6.90697 50.0994C2.30603 39.9894 3.12308 28.8035 9.16211 19.4202C15.7607 9.15808 27.3099 3.02846 40.0683 3.02846C52.8268 3.02846 64.3765 9.14348 70.9745 19.4056C77.0136 28.8051 77.8466 39.99 73.2297 50.0848L61.364 76.0874L61.3186 84.6393C61.3186 85.4712 61.9848 86.1533 62.8326 86.1533C63.6645 86.1533 64.3465 85.4871 64.3465 84.6393L64.3919 76.7391L75.9855 51.3268C81.0248 40.2919 80.1316 28.047 73.5182 17.7691L73.5176 17.7686Z"></path>
<path d="M62.2713 95.5058L17.1215 102.998C16.3043 103.134 15.7437 103.92 15.8799 104.739C16.0013 105.48 16.6369 106.01 17.378 106.01C17.454 106.01 17.5448 106.01 17.6198 105.995L62.7696 98.4874C63.5868 98.3512 64.1474 97.5647 64.0112 96.7465C63.875 95.9293 63.1022 95.3697 62.2703 95.5059L62.2713 95.5058Z"></path>
<path d="M62.2713 106.857L17.1215 114.349C16.3043 114.485 15.7437 115.272 15.8799 116.09C16.0013 116.831 16.6369 117.361 17.378 117.361C17.454 117.361 17.5448 117.361 17.6198 117.347L62.7696 109.839C63.5868 109.703 64.1474 108.916 64.0112 108.098C63.875 107.281 63.1022 106.721 62.2703 106.858L62.2713 106.857Z"></path>
<path d="M47.1223 118.209C46.3051 118.36 45.7603 119.162 45.9261 119.98C45.9715 120.252 46.0021 120.57 46.0021 120.918C46.0021 122.538 45.3665 124.052 44.2463 125.202C43.0956 126.336 41.5678 126.972 39.9484 126.972C36.967 126.972 34.4542 124.838 33.9855 121.917C33.8493 121.1 33.0776 120.539 32.2446 120.661C31.4274 120.797 30.8668 121.569 30.9882 122.402C31.7146 126.806 35.4678 130 39.9485 130C42.3704 130 44.6402 129.061 46.3813 127.336C48.0917 125.611 49.0303 123.325 49.0303 120.919C49.0303 120.375 48.9849 119.875 48.8941 119.405C48.742 118.603 47.9542 118.058 47.1223 118.209Z"></path>
<path d="M32.53 93.8111C33.3619 93.8111 34.044 93.1302 34.044 92.2971L34.0429 61.9207L21.4496 49.3274C21.7674 48.6464 21.949 47.9042 21.949 47.1176C21.949 44.1962 19.5725 41.8196 16.651 41.8196C13.7296 41.8196 11.3531 44.1962 11.3531 47.1176C11.3531 50.0391 13.7296 52.4156 16.651 52.4156C17.6804 52.4156 18.6338 52.1126 19.4362 51.5984L31.0149 63.1771V92.2968C31.016 93.1298 31.6969 93.8108 32.53 93.8108L32.53 93.8111ZM14.3822 47.118C14.3822 45.8616 15.3968 44.8481 16.6521 44.8481C17.9085 44.8481 18.922 45.8627 18.922 47.118C18.922 48.3744 17.9074 49.3879 16.6521 49.3879C15.3958 49.3879 14.3822 48.3585 14.3822 47.118Z"></path>
<path d="M38.5545 50.583V81.5486C38.5545 82.3806 39.2354 83.0626 40.0685 83.0626C40.9004 83.0626 41.5825 82.3817 41.5825 81.5486V51.8235L53.1611 40.2449V28.5608C55.3403 27.9104 56.945 25.897 56.945 23.5058C56.945 20.5843 54.5685 18.2078 51.647 18.2078C48.7256 18.2078 46.3491 20.5843 46.3491 23.5058C46.3491 25.8971 47.9538 27.8945 50.1329 28.5608V38.9897L38.5545 50.583ZM49.3772 23.5201C49.3772 22.2637 50.3918 21.2502 51.6471 21.2502C52.9035 21.2502 53.917 22.2648 53.917 23.5201C53.917 24.7764 52.9024 25.79 51.6471 25.79C50.3907 25.79 49.3772 24.7764 49.3772 23.5201Z"></path>
<path d="M46.0006 86.4542C46.0006 87.2861 46.6816 87.9682 47.5146 87.9682C48.3466 87.9682 49.0286 87.2872 49.0286 86.4542L49.0275 62.5854L60.7116 50.9013C61.4074 51.2498 62.195 51.4461 63.0122 51.4461C65.9336 51.4461 68.3101 49.0696 68.3101 46.1481C68.3101 43.2267 65.9336 40.8502 63.0122 40.8502C60.0907 40.8502 57.7142 43.2267 57.7142 46.1481C57.7142 47.1321 58.0013 48.0549 58.4712 48.8425L45.9992 61.3144L46.0006 86.4542ZM63.0122 43.8936C64.2685 43.8936 65.2821 44.9082 65.2821 46.1635C65.2821 47.4198 64.2675 48.4334 63.0122 48.4334C61.7558 48.4334 60.7423 47.4188 60.7423 46.1635C60.7423 44.9082 61.7716 43.8936 63.0122 43.8936Z"></path>
<path d="M26.492 19.4038C26.492 16.4823 24.1155 14.1058 21.194 14.1058C18.2726 14.1058 15.896 16.4823 15.896 19.4038C15.896 21.7951 17.5008 23.7925 19.6799 24.4588V30.8008L31.0167 42.1376V54.4425C31.0167 55.2745 31.6977 55.9565 32.5307 55.9565C33.3626 55.9565 34.0447 55.2755 34.0447 54.4425V40.8811L22.7079 29.5443V24.4588C24.887 23.7926 26.492 21.795 26.492 19.4038ZM18.9242 19.4038C18.9242 18.1474 19.9388 17.1339 21.1941 17.1339C22.4505 17.1339 23.464 18.1485 23.464 19.4038C23.464 20.6601 22.4494 21.6737 21.1941 21.6737C19.9378 21.6737 18.9242 20.6601 18.9242 19.4038Z"></path>
</svg></svg><text fill="#ff5400" font-family="Comfortaa" font-size="50px" x="114.51577758789062" y="162.34951400756836"><tspan dy="0" x="114.51577758789062">Ecommerce</tspan></text><text fill="#f28149" font-family="PT Sans" font-size="42px" x="214.59466552734375" y="177.92233085632324"><tspan dy="0" x="214.59466552734375"></tspan></text><defs><style type="text/css">
      
      }</style></defs></svg>